# xmcd
#
# Track frame offsets: 
#        150
#        8682
#        20928
#        35187
#        48128
#        59421
#        75716
#        84731
#        98087
#        108758
#        133662
#        144589
#        153587
#
# Disc length: 2209 seconds
#
# Revision: 0
# Processed by: cddbd v1.5.2PL0 Copyright (c) Steve Scherf et al.
# Submitted via: ExactAudioCopy v0.99pb3
#
DISCID=a9089f0d
DTITLE=Waring Family  - Stroll 0ver Heaven
DYEAR=1900
DGENRE=Bluegrass
TTITLE0=Halleluiah, I'm Ready
TTITLE1=Remember the Cross
TTITLE2=Just any Day Now
TTITLE3=The Old Rugged Cross
TTITLE4=Bells of St. Mary
TTITLE5=Six Hours on the Cross
TTITLE6=Who'll Sing for Me
TTITLE7=Stroll Over Heaven
TTITLE8=Shoutin' On the Hills
TTITLE9=In the Midst
TTITLE10=Bible for a Roadmap
TTITLE11=Gioing Up
TTITLE12=America
EXTD=
EXTT0=
EXTT1=
EXTT2=
EXTT3=
EXTT4=
EXTT5=
EXTT6=
EXTT7=
EXTT8=
EXTT9=
EXTT10=
EXTT11=
EXTT12=
PLAYORDER=
